<?xml version="1.0" encoding="utf-8"?>
<svg xmlns="http://www.w3.org/2000/svg" style="margin: auto; background: rgba(255, 255, 255, 0.565); display: block; shape-rendering: auto;" width="280" height="250" preserveAspectRatio="xMidYMid">
<style type="text/css">
  text {
    text-anchor: middle; font-size: 54px; opacity: 0;
  }
</style>
<g style="transform-origin: 140px 125px; transform: scale(0.675);">
<g transform="translate(140,125)">
  <g transform="translate(0,0)"><g class="path" style="transform: scale(0.91); transform-origin: -151.08px -1.5792px; animation: 1.92308s linear -1.14231s infinite normal forwards running breath-4705273b-8060-4cac-9b29-efb15e079852;"><path d="M21.84-24.48L21.84-24.48L21.84-24.48Q26-25.84 31.52-25.84L31.52-25.84L31.52-25.84Q37.04-25.84 37.04-22.64L37.04-22.64L37.04-22.64Q37.04-20.72 34.96-19.48L34.96-19.48L34.96-19.48Q32.88-18.24 28.96-18.24L28.96-18.24L28.96-18.24Q22.80-18.24 19.04-21.20L19.04-21.20L19.04-21.20Q17.60-19.68 16.80-18.64L16.80-18.64L16.80-18.64Q16-17.60 15-14.64L15-14.64L15-14.64Q14-11.68 14-7.52L14-7.52L14-7.52Q14-3.36 17.52-0.28L17.52-0.28L17.52-0.28Q21.04 2.80 24.84 2.80L24.84 2.80L24.84 2.80Q28.64 2.80 31.92 1.36L31.92 1.36L31.92 1.36Q35.20-0.08 37.12-2L37.12-2L37.12-2Q39.04-3.92 40.48-6.24L40.48-6.24L40.48-6.24Q42.48-9.20 43.12-11.44L43.12-11.44L44.72-11.04L44.72-11.04Q44.72-10.80 44.12-9.36L44.12-9.36L44.12-9.36Q43.52-7.92 41.92-5.56L41.92-5.56L41.92-5.56Q40.32-3.20 38.08-1L38.08-1L38.08-1Q35.84 1.20 31.92 2.80L31.92 2.80L31.92 2.80Q28 4.40 23.36 4.40L23.36 4.40L23.36 4.40Q14.80 4.40 10 0.76L10 0.76L10 0.76Q5.20-2.88 5.20-8.72L5.20-8.72L5.20-8.72Q5.20-14.56 8.84-18L8.84-18L8.84-18Q12.48-21.44 17.44-22.80L17.44-22.80L17.44-22.80Q13.84-27.20 13.84-33.24L13.84-33.24L13.84-33.24Q13.84-39.28 18.68-44L18.68-44L18.68-44Q23.52-48.72 32.64-48.72L32.64-48.72L32.64-48.72Q39.60-48.72 43.32-46.28L43.32-46.28L43.32-46.28Q47.04-43.84 47.04-40.20L47.04-40.20L47.04-40.20Q47.04-36.56 45.16-32.76L45.16-32.76L45.16-32.76Q43.28-28.96 43.04-26.72L43.04-26.72L41.36-26.72L41.36-26.72Q41.60-29.12 43.48-32.88L43.48-32.88L43.48-32.88Q45.36-36.64 45.36-39.88L45.36-39.88L45.36-39.88Q45.36-43.12 41.96-45.20L41.96-45.20L41.96-45.20Q38.56-47.28 33.32-47.28L33.32-47.28L33.32-47.28Q28.08-47.28 24.40-43.24L24.40-43.24L24.40-43.24Q20.72-39.20 20.72-30.88L20.72-30.88L20.72-30.88Q20.72-26.40 21.84-24.48zM23.04-22.16L23.04-22.16L23.04-22.16Q23.44-21.60 25.08-20.64L25.08-20.64L25.08-20.64Q26.72-19.68 29.44-19.68L29.44-19.68L29.44-19.68Q32.16-19.68 33.80-20.52L33.80-20.52L33.80-20.52Q35.44-21.36 35.44-22.48L35.44-22.48L35.44-22.48Q35.44-24.40 31.12-24.40L31.12-24.40L31.12-24.40Q26.80-24.40 22.48-23.12L22.48-23.12L22.48-23.12Q22.64-22.72 23.04-22.16" fill="#4f7abe" stroke="none" stroke-width="none" transform="translate(-177.19998168945312,20.580799072265634)" style="fill: rgb(79, 122, 190);"></path></g><g class="path" style="transform: scale(0.91); transform-origin: -99.28px 5.3808px; animation: 1.92308s linear -1.01538s infinite normal forwards running breath-4705273b-8060-4cac-9b29-efb15e079852;"><path d="M80.24-0.88L80.24-0.88L80.24-0.88Q82.16-0.88 84.24-3.12L84.24-3.12L85.44-2.16L85.44-2.16Q84.88-1.04 82.96-0.16L82.96-0.16L82.96-0.16Q81.04 0.72 78.72 0.72L78.72 0.72L78.72 0.72Q71.44 0.72 71.44-5.84L71.44-5.84L71.44-5.84Q71.44-8.64 72.88-15.84L72.88-15.84L72.88-15.84Q74.32-23.04 74.32-25.28L74.32-25.28L74.32-25.28Q74.32-28.72 71.04-28.72L71.04-28.72L71.04-28.72Q66.08-28.72 62.72-16L62.72-16L59.84 0L50.24 0L55.52-29.52L55.52-29.52Q53.12-29.28 51.52-27.28L51.52-27.28L50.32-28.24L50.32-28.24Q52.72-31.12 56.36-31.12L56.36-31.12L56.36-31.12Q60-31.12 62-29.28L62-29.28L62-29.28Q64-27.44 64-24.08L64-24.08L64-23.84L64-23.84Q67.12-31.12 73.44-31.12L73.44-31.12L73.44-31.12Q77.92-31.12 80.52-28.68L80.52-28.68L80.52-28.68Q83.12-26.24 83.36-21.84L83.36-21.84L83.36-21.84Q84.88-26.24 87.20-28.68L87.20-28.68L87.20-28.68Q89.52-31.12 93.92-31.12L93.92-31.12L93.92-31.12Q98.32-31.12 100.96-28.44L100.96-28.44L100.96-28.44Q103.60-25.76 103.60-21.04L103.60-21.04L103.60-21.04Q103.60-18.56 102.08-11.48L102.08-11.48L102.08-11.48Q100.56-4.40 100.40-0.88L100.40-0.88L100.40-0.88Q102.32-0.88 104.40-3.12L104.40-3.12L105.60-2.16L105.60-2.16Q105.04-1.04 103.12-0.16L103.12-0.16L103.12-0.16Q101.20 0.72 98.88 0.72L98.88 0.72L98.88 0.72Q91.60 0.72 91.60-5.84L91.60-5.84L91.60-5.84Q91.60-8.64 93.04-15.84L93.04-15.84L93.04-15.84Q94.48-23.04 94.48-25.28L94.48-25.28L94.48-25.28Q94.48-28.72 91.20-28.72L91.20-28.72L91.20-28.72Q85.44-28.72 81.92-11.60L81.92-11.60L81.92-11.60Q80.40-4.32 80.24-0.88" fill="#4f7abe" stroke="none" stroke-width="none" transform="translate(-177.19998168945312,20.580799072265634)" style="fill: rgb(10, 113, 66);"></path></g><g class="path" style="transform: scale(0.91); transform-origin: -50.56px 5.3808px; animation: 1.92308s linear -0.888462s infinite normal forwards running breath-4705273b-8060-4cac-9b29-efb15e079852;"><path d="M137.60 0.72L137.60 0.72L137.60 0.72Q130.56 0.72 129.92-5.44L129.92-5.44L129.92-5.44Q126.40 0.72 121.04 0.72L121.04 0.72L121.04 0.72Q115.68 0.72 112.52-2.52L112.52-2.52L112.52-2.52Q109.36-5.76 109.36-11.60L109.36-11.60L109.36-11.60Q109.36-20.72 113.84-25.92L113.84-25.92L113.84-25.92Q118.32-31.12 125.44-31.12L125.44-31.12L125.44-31.12Q131.28-31.12 133.20-25.60L133.20-25.60L133.20-25.60Q133.60-28 134.08-30.40L134.08-30.40L134.08-30.40Q140-30.40 142.88-30.88L142.88-30.88L143.92-31.12L138.40-0.88L138.40-0.88Q140.80-1.12 142.40-3.12L142.40-3.12L143.60-2.16L143.60-2.16Q141.20 0.72 137.60 0.72zM118.40-7.52L118.40-7.52Q118.40-3.92 119.32-2.52L119.32-2.52L119.32-2.52Q120.24-1.12 122.16-1.12L122.16-1.12L122.16-1.12Q124.08-1.12 126.08-3.20L126.08-3.20L126.08-3.20Q128.72-5.92 130.32-10.08L130.32-10.08L130.32-10.08Q130.56-11.12 131.24-15.08L131.24-15.08L131.24-15.08Q131.92-19.04 132.40-21.60L132.40-21.60L132.40-21.60Q132.16-24.64 130.72-26.88L130.72-26.88L130.72-26.88Q129.28-29.12 127.12-29.12L127.12-29.12L127.12-29.12Q123.20-29.12 120.80-22.12L120.80-22.12L120.80-22.12Q118.40-15.12 118.40-7.52L118.40-7.52" fill="#4f7abe" stroke="none" stroke-width="none" transform="translate(-177.19998168945312,20.580799072265634)" style="fill: rgb(19, 163, 101);"></path></g><g class="path" style="transform: scale(0.91); transform-origin: -21px 5.3808px; animation: 1.92308s linear -0.761538s infinite normal forwards running breath-4705273b-8060-4cac-9b29-efb15e079852;"><path d="M162.88-2.16L162.88-2.16Q160.48 0.72 156.88 0.72L156.88 0.72L156.88 0.72Q153.28 0.72 151.24-1.12L151.24-1.12L151.24-1.12Q149.20-2.96 149.20-5.92L149.20-5.92L149.20-5.92Q149.20-6.96 150.48-14.64L150.48-14.64L153.12-28.96L149.76-28.96L149.92-30.40L153.36-30.40L153.36-30.40Q159.28-30.40 162.08-30.88L162.08-30.88L163.20-31.12L157.68-0.88L157.68-0.88Q160.08-1.12 161.68-3.12L161.68-3.12L162.88-2.16" fill="#4f7abe" stroke="none" stroke-width="none" transform="translate(-177.19998168945312,20.580799072265634)" style="fill: rgb(79, 122, 190);"></path></g><g class="path" style="transform: scale(0.91); transform-origin: -17.24px -22.3392px; animation: 1.92308s linear -0.634615s infinite normal forwards running breath-4705273b-8060-4cac-9b29-efb15e079852;"><path d="M155.84-38.80L155.84-38.80L155.84-38.80Q154.16-40.48 154.16-42.88L154.16-42.88L154.16-42.88Q154.16-45.28 155.84-47L155.84-47L155.84-47Q157.52-48.72 159.92-48.72L159.92-48.72L159.92-48.72Q162.32-48.72 164.04-47L164.04-47L164.04-47Q165.76-45.28 165.76-42.88L165.76-42.88L165.76-42.88Q165.76-40.48 164.04-38.80L164.04-38.80L164.04-38.80Q162.32-37.12 159.92-37.12L159.92-37.12L159.92-37.12Q157.52-37.12 155.84-38.80" fill="#4f7abe" stroke="none" stroke-width="none" transform="translate(-177.19998168945312,20.580799072265634)" style="fill: rgb(10, 113, 66);"></path></g><g class="path" style="transform: scale(0.91); transform-origin: 1.80002px -4.9792px; animation: 1.92308s linear -0.507692s infinite normal forwards running breath-4705273b-8060-4cac-9b29-efb15e079852;"><path d="M182.08-2.88L182.08-2.88L182.08-2.88Q181.04-1.52 179.24-0.40L179.24-0.40L179.24-0.40Q177.44 0.72 174.56 0.72L174.56 0.72L174.56 0.72Q171.68 0.72 169.68-1.12L169.68-1.12L169.68-1.12Q167.68-2.96 167.68-6.32L167.68-6.32L167.68-6.32Q167.68-6.96 167.84-8.40L167.84-8.40L173.04-37.20L173.04-37.20Q174.48-45.12 177.00-48.48L177.00-48.48L177.00-48.48Q179.52-51.84 183.68-51.84L183.68-51.84L183.68-51.84Q186.56-51.84 188.44-49.68L188.44-49.68L188.44-49.68Q190.32-47.52 190.32-43.12L190.32-43.12L190.32-43.12Q190.32-38.72 186.92-30.56L186.92-30.56L186.92-30.56Q183.52-22.40 183.52-18.64L183.52-18.64L182.08-18.64L182.08-18.64Q182.08-22.88 185.44-30.76L185.44-30.76L185.44-30.76Q188.80-38.64 188.80-43.36L188.80-43.36L188.80-43.36Q188.80-46.24 187.48-48.32L187.48-48.32L187.48-48.32Q186.16-50.40 184.24-50.40L184.24-50.40L184.24-50.40Q184.16-48.32 181.48-31.72L181.48-31.72L181.48-31.72Q178.80-15.12 176.16-0.88L176.16-0.88L176.16-0.88Q178.40-0.88 180.32-3.20L180.32-3.20L180.32-3.20Q182.24-5.52 183.04-7.84L183.04-7.84L183.92-10.24L185.36-9.60L185.36-9.60Q185.12-8.48 184.12-6.36L184.12-6.36L184.12-6.36Q183.12-4.24 182.08-2.88" fill="#4f7abe" stroke="none" stroke-width="none" transform="translate(-177.19998168945312,20.580799072265634)" style="fill: rgb(19, 163, 101);"></path></g><g class="path" style="transform: scale(0.91); transform-origin: 58.36px 1.6208px; animation: 1.92308s linear -0.380769s infinite normal forwards running breath-4705273b-8060-4cac-9b29-efb15e079852;"><path d="M226.72 15.52L226.72 15.52L226.72 15.52Q235.12 15.52 239.80 12.08L239.80 12.08L239.80 12.08Q244.48 8.64 244.48 2.96L244.48 2.96L244.48 2.96Q244.48-1.12 242.44-4.24L242.44-4.24L242.44-4.24Q240.40-7.36 237.36-9.40L237.36-9.40L237.36-9.40Q234.32-11.44 231.16-13.44L231.16-13.44L231.16-13.44Q228.00-15.44 225.28-18.48L225.28-18.48L225.28-18.48Q222.56-21.52 221.68-25.36L221.68-25.36L221.68-25.36Q214.40-27.52 212.08-34.40L212.08-34.40L212.08-34.40Q211.20-37.04 211.20-39.92L211.20-39.92L211.20-39.92Q211.20-42.80 212.08-45.92L212.08-45.92L212.08-45.92Q213.92-52.08 218.08-55.20L218.08-55.20L218.96-53.92L218.96-53.92Q215.20-51.20 213.52-45.44L213.52-45.44L213.52-45.44Q212.72-42.56 212.72-39.92L212.72-39.92L212.72-39.92Q212.72-37.28 213.52-34.88L213.52-34.88L213.52-34.88Q215.44-29.04 221.44-27.04L221.44-27.04L221.44-27.04Q221.28-27.92 221.28-29.76L221.28-29.76L221.28-29.76Q221.28-40.24 228.88-46.72L228.88-46.72L228.88-46.72Q236.48-53.20 247.44-53.20L247.44-53.20L247.44-53.20Q254.64-53.20 258.96-49.28L258.96-49.28L258.96-49.28Q262.64-45.84 262.64-40.84L262.64-40.84L262.64-40.84Q262.64-35.84 259.28-32.20L259.28-32.20L259.28-32.20Q255.92-28.56 250.24-28.56L250.24-28.56L250.24-28.56Q247.12-28.56 245.12-29.76L245.12-29.76L245.12-29.76Q241.04-26.64 235.44-25.28L235.44-25.28L235.44-25.28Q237.04-23.76 242.92-19.68L242.92-19.68L242.92-19.68Q248.80-15.60 251.72-11.88L251.72-11.88L251.72-11.88Q254.64-8.16 254.64-3.20L254.64-3.20L254.64-3.20Q254.64 5.92 247.56 11.60L247.56 11.60L247.56 11.60Q240.48 17.28 229.64 17.28L229.64 17.28L229.64 17.28Q218.80 17.28 213.28 12.48L213.28 12.48L213.28 12.48Q208.48 8.40 208.48 2.52L208.48 2.52L208.48 2.52Q208.48-3.36 212.28-7.56L212.28-7.56L212.28-7.56Q216.08-11.76 221.76-11.76L221.76-11.76L221.76-11.76Q227.44-11.76 230.16-9.24L230.16-9.24L230.16-9.24Q232.88-6.72 232.88-3.12L232.88-3.12L232.88-3.12Q232.88 0.48 230.68 3.28L230.68 3.28L230.68 3.28Q228.48 6.08 224.96 6.08L224.96 6.08L224.96 6.08Q221.44 6.08 219.36 3.84L219.36 3.84L219.36 3.84Q217.44 1.92 217.20-0.96L217.20-0.96L217.20-0.96Q217.12-1.76 217.20-1.92L217.20-1.92L218.72-1.84L218.72-1.84Q218.64 0.96 220.48 2.80L220.48 2.80L220.48 2.80Q222.00 4.48 224.92 4.48L224.92 4.48L224.92 4.48Q227.84 4.48 229.60 2.20L229.60 2.20L229.60 2.20Q231.36-0.08 231.36-3.08L231.36-3.08L231.36-3.08Q231.36-6.08 229.28-7.92L229.28-7.92L229.28-7.92Q226.96-10.24 221.84-10.24L221.84-10.24L221.84-10.24Q216.72-10.24 213.36-6.52L213.36-6.52L213.36-6.52Q210.00-2.80 210.00 2.44L210.00 2.44L210.00 2.44Q210.00 7.68 214.32 11.36L214.32 11.36L214.32 11.36Q216.88 13.60 219.56 14.56L219.56 14.56L219.56 14.56Q222.24 15.52 226.72 15.52zM240.32-39.52L240.32-39.52L240.32-39.52Q240.32-43.04 242.12-45.36L242.12-45.36L242.12-45.36Q243.92-47.68 247.04-47.68L247.04-47.68L247.04-47.68Q252.40-47.68 252.40-41.80L252.40-41.80L252.40-41.80Q252.40-35.92 246.56-30.72L246.56-30.72L246.56-30.72Q248.32-29.92 250.24-29.92L250.24-29.92L250.24-29.92Q255.20-29.92 258.16-33.16L258.16-33.16L258.16-33.16Q261.12-36.40 261.12-40.76L261.12-40.76L261.12-40.76Q261.12-45.12 257.92-48.16L257.92-48.16L257.92-48.16Q254.00-51.68 247.60-51.68L247.60-51.68L247.60-51.68Q241.20-51.68 236.72-48.56L236.72-48.56L236.72-48.56Q229.76-43.60 229.76-35.76L229.76-35.76L229.76-35.76Q229.76-29.28 234.08-26.32L234.08-26.32L234.08-26.32Q239.44-27.52 244.00-30.64L244.00-30.64L244.00-30.64Q240.32-33.92 240.32-39.52zM246.96-46.24L246.96-46.24L246.96-46.24Q244.56-46.24 243.24-44.40L243.24-44.40L243.24-44.40Q241.92-42.56 241.92-39.52L241.92-39.52L241.92-39.52Q241.92-34.32 245.20-31.60L245.20-31.60L245.20-31.60Q247.60-33.28 249.20-36.16L249.20-36.16L249.20-36.16Q250.80-39.04 250.80-41.84L250.80-41.84L250.80-41.84Q250.80-46.24 246.96-46.24" fill="#4f7abe" stroke="none" stroke-width="none" transform="translate(-177.19998168945312,20.580799072265634)" style="fill: rgb(79, 122, 190);"></path></g><g class="path" style="transform: scale(0.91); transform-origin: 100.08px 5.3808px; animation: 1.92308s linear -0.253846s infinite normal forwards running breath-4705273b-8060-4cac-9b29-efb15e079852;"><path d="M280.80-31.12L280.80-31.12L280.80-31.12Q290.96-31.12 290.96-23.04L290.96-23.04L290.96-23.04Q290.96-18 286.20-15.40L286.20-15.40L286.20-15.40Q281.44-12.80 272.64-12.72L272.64-12.72L272.64-12.72Q272.48-9.84 272.48-8.16L272.48-8.16L272.48-8.16Q272.48-4.56 274.12-2.84L274.12-2.84L274.12-2.84Q275.76-1.12 278.24-1.12L278.24-1.12L278.24-1.12Q280.72-1.12 282.76-2.08L282.76-2.08L282.76-2.08Q284.80-3.04 286-4.36L286-4.36L286-4.36Q287.20-5.68 288.08-7.12L288.08-7.12L288.08-7.12Q289.68-9.76 289.68-10.48L289.68-10.48L291.12-9.84L291.12-9.84Q290.88-8.56 289.68-6.44L289.68-6.44L289.68-6.44Q288.48-4.32 287.04-2.96L287.04-2.96L287.04-2.96Q285.60-1.60 282.80-0.44L282.80-0.44L282.80-0.44Q280 0.72 276.56 0.72L276.56 0.72L276.56 0.72Q270.08 0.72 266.76-2.36L266.76-2.36L266.76-2.36Q263.44-5.44 263.44-10.80L263.44-10.80L263.44-10.80Q263.44-20.32 268.16-25.72L268.16-25.72L268.16-25.72Q272.88-31.12 280.80-31.12zM288.96-23.04L288.96-23.04Q288.96-25.68 287.40-27.40L287.40-27.40L287.40-27.40Q285.84-29.12 282.76-29.12L282.76-29.12L282.76-29.12Q279.68-29.12 276.76-25.44L276.76-25.44L276.76-25.44Q273.84-21.76 272.88-14.56L272.88-14.56L272.88-14.56Q288.96-14.64 288.96-23.04L288.96-23.04" fill="#4f7abe" stroke="none" stroke-width="none" transform="translate(-177.19998168945312,20.580799072265634)" style="fill: rgb(10, 113, 66);"></path></g><g class="path" style="transform: scale(0.91); transform-origin: 136.28px 5.3808px; animation: 1.92308s linear -0.126923s infinite normal forwards running breath-4705273b-8060-4cac-9b29-efb15e079852;"><path d="M326.24-0.88L326.24-0.88L326.24-0.88Q328.16-0.88 330.24-3.12L330.24-3.12L331.44-2.16L331.44-2.16Q330.88-1.04 328.96-0.16L328.96-0.16L328.96-0.16Q327.04 0.72 324.72 0.72L324.72 0.72L324.72 0.72Q317.44 0.72 317.44-5.84L317.44-5.84L317.44-5.84Q317.44-8.64 318.88-15.84L318.88-15.84L318.88-15.84Q320.32-23.04 320.32-25.28L320.32-25.28L320.32-25.28Q320.32-28.72 317.04-28.72L317.04-28.72L317.04-28.72Q314.40-28.72 311.96-25.28L311.96-25.28L311.96-25.28Q309.52-21.84 307.92-15.84L307.92-15.84L305.20-0.88L305.20-0.88Q307.68-1.12 309.28-3.12L309.28-3.12L310.48-2.16L310.48-2.16Q308.08 0.72 304.48 0.72L304.48 0.72L304.48 0.72Q300.88 0.72 298.84-1.12L298.84-1.12L298.84-1.12Q296.80-2.96 296.80-5.92L296.80-5.92L296.80-5.92Q296.80-7.04 298.08-14.72L298.08-14.72L300.72-29.52L300.72-29.52Q298.32-29.28 296.72-27.28L296.72-27.28L295.52-28.24L295.52-28.24Q297.92-31.12 301.56-31.12L301.56-31.12L301.56-31.12Q305.20-31.12 307.20-29.28L307.20-29.28L307.20-29.28Q309.20-27.44 309.20-24.08L309.20-24.08L309.20-23.60L309.20-23.60Q312.48-31.12 319.44-31.12L319.44-31.12L319.44-31.12Q324.16-31.12 326.80-28.44L326.80-28.44L326.80-28.44Q329.44-25.76 329.44-21.04L329.44-21.04L329.44-21.04Q329.44-18.56 327.92-11.48L327.92-11.48L327.92-11.48Q326.40-4.40 326.24-0.88" fill="#4f7abe" stroke="none" stroke-width="none" transform="translate(-177.19998168945312,20.580799072265634)" style="fill: rgb(19, 163, 101);"></path></g><g class="path" style="transform: scale(0.91); transform-origin: 170.56px -0.5392px; animation: 1.92308s linear 0s infinite normal forwards running breath-4705273b-8060-4cac-9b29-efb15e079852;"><path d="M336.08-30.40L340.16-30.40L342.32-42.24L342.32-42.24Q348.24-42.24 351.12-42.72L351.12-42.72L352.16-42.96L352.16-42.96Q351.04-37.36 349.68-30.40L349.68-30.40L359.60-30.40L359.44-28.96L349.44-28.96L349.44-28.96Q345.44-8.32 345.44-4.08L345.44-4.08L345.44-4.08Q345.44-1.52 348.16-1.52L348.16-1.52L348.16-1.52Q350.88-1.52 353.12-4.96L353.12-4.96L353.12-4.96Q355.36-8.40 356.32-12.40L356.32-12.40L357.76-11.92L357.76-11.92Q354.80 0.72 345.52 0.72L345.52 0.72L345.52 0.72Q341.68 0.72 339.12-1.40L339.12-1.40L339.12-1.40Q336.56-3.52 336.56-7.32L336.56-7.32L336.56-7.32Q336.56-11.12 339.84-28.96L339.84-28.96L335.92-28.96L336.08-30.40" fill="#4f7abe" stroke="none" stroke-width="none" transform="translate(-177.19998168945312,20.580799072265634)" style="fill: rgb(79, 122, 190);"></path></g></g>
</g>
</g>
<style id="breath-4705273b-8060-4cac-9b29-efb15e079852" data-anikit="">@keyframes breath-4705273b-8060-4cac-9b29-efb15e079852
{
  0% {
    animation-timing-function: cubic-bezier(0.9647,0.2413,-0.0705,0.7911);
    transform: scale(0.9099999999999999);
  }
  51% {
    animation-timing-function: cubic-bezier(0.9226,0.2631,-0.0308,0.7628);
    transform: scale(1.02994);
  }
  100% {
    transform: scale(0.9099999999999999);
  }
}</style></svg>